<svg xmlns="http://www.w3.org/2000/svg" width="25.227" height="25.227" viewBox="0 0 25.227 25.227"><defs><style>.a{fill:#3d83d9;}.b{fill:#fff;}</style></defs><path class="a" d="M355.2,402.105a12.613,12.613,0,1,0-12.613,12.613A12.613,12.613,0,0,0,355.2,402.105Z" transform="translate(-329.973 -389.492)"/><g transform="translate(6.608 5.363)"><rect class="b" width="2.92" height="8.345" transform="translate(0 4.172)"/><path class="b" d="M369.052,420.023a1.461,1.461,0,1,0,1.46,1.46A1.462,1.462,0,0,0,369.052,420.023Z" transform="translate(-367.592 -420.023)"/><path class="b" d="M401.641,446.34c-.2-1.573-.983-2.563-3.109-2.563-1.509,0-2.109.235-2.455.894h0v-.894h-2.364v8.344h2.433v-4.368c0-1.09.207-1.914,1.555-1.914,1.329,0,1.436,1.014,1.436,1.985v4.3h2.5S401.687,446.708,401.641,446.34Z" transform="translate(-389.125 -439.605)"/></g></svg>