<svg xmlns="http://www.w3.org/2000/svg" width="185.023" height="147.413" viewBox="0 0 185.023 147.413"><defs><style>.a{fill:#fff;}.b{fill:#d7f2ed;}.c{fill:#2e303d;}.d{fill:#ff9971;}.e{fill:#f9785a;}.f{fill:#8e8e8e;}.g{fill:#b7b7b7;}.h{fill:#d5e0e0;}.i{fill:#4a5dd8;}.j{fill:#e56b45;}.k{fill:#7d8ef8;}.l{fill:#04105e;}</style></defs><g transform="translate(1086.023 713.548)"><g transform="translate(617 78)"><g transform="translate(-1648.542 -758.521)"><path class="a" d="M196.554,229.3s-20.271,24.6-27.44,23.959-12.083-12.631-12.083-12.631.246-.132.663-.382c2.1-1.238,8.553-5.339,10.063-9.716,1.462-2.375,12.1-19.617,15.331-24.016,3.482-4.729,7.578-4.913,7.578-4.913,2.309,3.8,5.225,6.687,8.838,7.231a14.257,14.257,0,0,0,1.44.145c.22,1.545,1.673,9.431,8.755,13.466,0,0,.272-5.492,3.9-5.98a6.126,6.126,0,0,1,7.02.975s5.031-5.4,0-20.565l-3.591-3.249,0,0-1.646-3.916s18.374-.918,22.624,3.021,31.436,39.909,31.436,39.909l-39.545,30.7S205.919,239.56,196.554,229.3Z" transform="translate(-157.031 -189.614)"/><path class="b" d="M292.9,202c5.031,15.165,0,20.565,0,20.565a6.126,6.126,0,0,0-7.02-.975l5.128-18.8-1.7-4.039Z" transform="translate(-229.31 -194.742)"/><path class="b" d="M264.392,237.692l5.317,3.508c-3.631.487-3.9,5.98-3.9,5.98-7.082-4.035-8.535-11.92-8.755-13.465a11.544,11.544,0,0,0,1.3-.009Z" transform="translate(-213.138 -214.347)"/><path class="c" d="M237.828,269l-6.636-8.19c-.178-.22-.487.093-.31.31l6.636,8.19C237.7,269.535,238,269.222,237.828,269Z" transform="translate(-198.428 -229.512)"/><path class="c" d="M235.923,278.188l-4.7-2.016c-.257-.111-.481.268-.222.379l4.7,2.017C235.959,278.677,236.182,278.3,235.923,278.188Z" transform="translate(-198.462 -238.157)"/><path class="c" d="M301.914,276.868l-5.973-9.88L290,257.154l-3.369-5.572a.22.22,0,0,0-.379.222l5.973,9.881,5.945,9.834,3.369,5.572A.22.22,0,0,0,301.914,276.868Z" transform="translate(-229.497 -224.316)"/></g><g transform="translate(-1663.066 -730.43)"><path class="d" d="M149.521,264.8a5.584,5.584,0,0,1-.321,1.621c-1.51,4.377-7.964,8.478-10.063,9.716l-.663-2.427a7.329,7.329,0,0,1-5.892-1.392.858.858,0,0,1-.294.321,1.983,1.983,0,0,1-1.207.18,9.888,9.888,0,0,1-5.163-2.037,4.876,4.876,0,0,1-1.9-2.643,2.533,2.533,0,0,1,1.067-2.74,3.138,3.138,0,0,1-.066-.5,3.47,3.47,0,0,1,1.142-2.533,9.328,9.328,0,0,1,2.182-1.489c.009-.039.018-.074.026-.11a3.216,3.216,0,0,1,1.234-1.655,9.032,9.032,0,0,1,1.668-.913c-2.814-1.449-5.514-3.056-5.242-3.776.549-1.462,6.313-.944,12.144,1.1s7.732,5.093,7.732,5.093C147.717,259.816,149.7,259.974,149.521,264.8Z" transform="translate(-123.951 -253.595)"/><path class="c" d="M165.721,274.431l-4.076,1.749-2.063.885a2.91,2.91,0,0,1-1.888.442c-.683-.212-.691-.976-.429-1.525a8.216,8.216,0,0,1,1.049-1.52,17.246,17.246,0,0,1,6-4.767c.255-.122.032-.5-.221-.379a17.674,17.674,0,0,0-6.205,4.976c-.645.82-1.861,2.268-.893,3.3a1.674,1.674,0,0,0,1.726.293,21.751,21.751,0,0,0,2.084-.868l5.132-2.2C166.2,274.7,165.979,274.321,165.721,274.431Z" transform="translate(-142.288 -262.401)"/><path class="c" d="M145.986,267.073l-5.11-3.051a.22.22,0,0,0-.222.379l5.11,3.051A.22.22,0,0,0,145.986,267.073Z" transform="translate(-133.262 -259.426)"/><path class="c" d="M143.012,279.009a4.407,4.407,0,0,0-.394-1.181l-.526-1.258-2.419-5.788c-.107-.257-.532-.144-.423.116l1.956,4.681.988,2.365c.2.479.816,1.738-.072,1.941-.623.143-1.349-.479-1.822-.812a15.432,15.432,0,0,1-1.556-1.255,16.122,16.122,0,0,1-2.57-3.018,15.914,15.914,0,0,1-1.909-4.044c-.083-.269-.507-.154-.424.117a16.422,16.422,0,0,0,6.237,8.579,3.542,3.542,0,0,0,1.905.886A1.112,1.112,0,0,0,143.012,279.009Z" transform="translate(-129.493 -263.136)"/><path class="c" d="M135.258,284.5c-.168-.223-.55,0-.379.222a1,1,0,0,1-.022,1.3,1.108,1.108,0,0,1-1.3.181,6.022,6.022,0,0,1-1.228-.835q-.6-.472-1.178-.97a33.748,33.748,0,0,1-4.2-4.346c-.177-.22-.486.093-.31.31a33.722,33.722,0,0,0,3.832,4.022c.675.6,1.374,1.176,2.1,1.717a2.106,2.106,0,0,0,2.248.5A1.428,1.428,0,0,0,135.258,284.5Z" transform="translate(-125.428 -268.394)"/></g><g transform="translate(-1633.262 -791.548)"><path class="d" d="M252.242,176.969l-5.128,18.8-5.317-3.508c5.471-7.771,4.4-17,4.4-17s-.852,12.429-10.449,13.013a11.53,11.53,0,0,1-1.3.009,14.288,14.288,0,0,1-1.44-.145c-3.613-.544-6.529-3.434-8.838-7.231-4.588-7.543-6.805-18.651-7.407-22.062,5.4-.707,10.656-2.977,15.784-5.023a10.52,10.52,0,0,1,4.957-1.072,7.25,7.25,0,0,1,4.465,2.529,19.117,19.117,0,0,1,2.507,3.846c.2-1.239,1.041-4.952,3.85-3.881a2.456,2.456,0,0,1,.865.571c2.331,2.353,1.475,9.659-1.168,11.147l.861,2.046,1.646,3.916,0,0Z" transform="translate(-205.823 -135.889)"/><path class="c" d="M270.45,204.065s1.067,9.229-4.4,17L260,217.078C269.6,216.494,270.45,204.065,270.45,204.065Z" transform="translate(-230.073 -164.693)"/><path class="c" d="M234.736,127.747a8.965,8.965,0,0,0-1.765-4.623,3.764,3.764,0,0,0-4.033-1.165,5.89,5.89,0,0,0-4.21-7.225c-3.722-.969-7.123,1.48-10.145,3.269a18.378,18.378,0,0,1-5.135,2.155,16.568,16.568,0,0,1-8.209-.133,15.25,15.25,0,0,0-2.727-.593,3.543,3.543,0,0,0-3.752,1.979,5.922,5.922,0,0,0,.283,4.422,9.162,9.162,0,0,0,1.652,2.613,4.365,4.365,0,0,0-3.54,7.491,7.335,7.335,0,0,0,4.619,1.646,24.151,24.151,0,0,0,5.01-.167c5.4-.707,10.656-2.977,15.784-5.023a10.526,10.526,0,0,1,4.957-1.072,7.248,7.248,0,0,1,4.465,2.529A19.1,19.1,0,0,1,230.5,137.7c.2-1.238,1.041-4.953,3.85-3.881a2.461,2.461,0,0,1,.865.57A39.116,39.116,0,0,0,234.736,127.747Zm-9.321-10.769a8.967,8.967,0,0,0-6.5.623c-2.046.883-3.916,2.138-5.971,2.995a17,17,0,0,1-11.911.369c-1.423-.492-2.977-1.177-4.36-.588a3.229,3.229,0,0,0-1.783,2.761,4.67,4.67,0,0,1,.057-.791,2.95,2.95,0,0,1,.989-1.831,3.413,3.413,0,0,1,2.188-.66,10.338,10.338,0,0,1,2.65.5,19.269,19.269,0,0,0,2.558.541,17.163,17.163,0,0,0,9.89-1.642c3.115-1.557,5.965-4.165,9.616-4.282a5.7,5.7,0,0,1,4.345,1.7,5.485,5.485,0,0,1,1.462,4.523c-.007.057-.024.112-.033.168A4.786,4.786,0,0,0,225.415,116.978Z" transform="translate(-191.834 -114.46)"/><path class="a" d="M258.762,204.4s2.441,4.461-1.282,7.051-6.349-1.089-6.349-1.089Z" transform="translate(-225.097 -164.884)"/><path class="e" d="M239.062,186l5.062,10.072s-4.118,2.318-5.062.975S239.062,186,239.062,186Z" transform="translate(-218.091 -154.557)"/><path class="c" d="M230.948,188.693c.389,1.315-.037,2.6-.95,2.868s-1.968-.577-2.356-1.891.037-2.6.95-2.869S230.559,187.378,230.948,188.693Z" transform="translate(-211.839 -154.981)"/><path class="c" d="M255.28,180.485c.388,1.315-.037,2.6-.95,2.868s-1.968-.577-2.357-1.891.037-2.6.951-2.868S254.892,179.171,255.28,180.485Z" transform="translate(-225.489 -150.377)"/><path class="c" d="M226.727,179.024a9.445,9.445,0,0,0-2.383.938.885.885,0,0,0-.282,1.21.9.9,0,0,0,1.21.282c.185-.1.376-.195.568-.284a8.632,8.632,0,0,1,1.385-.461.884.884,0,0,0,.594-1.091A.9.9,0,0,0,226.727,179.024Z" transform="translate(-209.839 -150.63)"/><path class="c" d="M253.167,171.991a1.026,1.026,0,0,0-.618-.238,6.737,6.737,0,0,0-3.161.467.949.949,0,0,0-.522.422.878.878,0,0,0,1.02,1.262,5.384,5.384,0,0,1,2.7-.394.884.884,0,0,0,.624-.277.878.878,0,0,0-.038-1.242Z" transform="translate(-223.766 -146.551)"/><path class="c" d="M275.566,114.5c-.112-.259-.49-.036-.379.222a14.765,14.765,0,0,1,1.2,5.995.22.22,0,0,0,.439,0A15.285,15.285,0,0,0,275.566,114.5Z" transform="translate(-238.58 -114.389)"/><path class="c" d="M279.929,123.074l-.562,2.316c-.067.274.357.392.423.117l.562-2.316C280.419,122.916,280,122.8,279.929,123.074Z" transform="translate(-240.932 -119.173)"/></g><g transform="translate(-1666.28 -673.567)"><path class="f" d="M185.661,399.062v2.805H146.489l-29.86-16.232v-2.525l30.43,15.951Z" transform="translate(-116.63 -383.112)"/><path class="g" d="M185.661,399.062h-38.6l-30.43-15.951h38.6Z" transform="translate(-116.63 -383.112)"/><path class="f" d="M184.384,414.138H179.63l-3.747-1.964h4.753Z" transform="translate(-149.868 -399.414)"/><path class="f" d="M172.942,408.161h-4.753l-3.747-1.964h4.754Z" transform="translate(-143.45 -396.061)"/><path class="f" d="M163.261,402.417h-4.754l-3.747-1.964h4.754Z" transform="translate(-138.019 -392.839)"/><path class="f" d="M151.819,396.44h-4.754l-3.747-1.964h4.754Z" transform="translate(-131.601 -389.486)"/><path class="f" d="M197.45,413.27H192.7l-3.747-1.964H193.7Z" transform="translate(-157.198 -398.927)"/><path class="f" d="M187.769,407.526h-4.754l-3.747-1.964h4.753Z" transform="translate(-151.767 -395.705)"/><path class="f" d="M176.327,401.548h-4.754l-3.747-1.964h4.754Z" transform="translate(-145.349 -392.352)"/><path class="f" d="M199.813,406.46H195.06l-3.747-1.964h4.754Z" transform="translate(-158.523 -395.107)"/><path class="f" d="M190.132,400.717h-4.754l-3.747-1.964h4.754Z" transform="translate(-153.093 -391.885)"/><path class="f" d="M178.69,394.739h-4.754l-3.747-1.964h4.754Z" transform="translate(-146.674 -388.532)"/><path class="f" d="M239.7,414.679h-4.754l-3.747-1.964h4.753Z" transform="translate(-180.896 -399.718)"/><path class="f" d="M228.254,408.7H223.5l-3.747-1.964h4.754Z" transform="translate(-174.477 -396.364)"/><path class="f" d="M218.573,402.958H213.82l-3.747-1.964h4.754Z" transform="translate(-169.047 -393.143)"/><path class="f" d="M207.131,396.98h-4.754l-3.747-1.964h4.753Z" transform="translate(-162.628 -389.789)"/><path class="f" d="M252.763,413.81h-4.754l-3.747-1.964h4.754Z" transform="translate(-188.225 -399.23)"/><path class="f" d="M243.081,408.066h-4.754l-3.747-1.964h4.754Z" transform="translate(-182.795 -396.008)"/><path class="f" d="M231.64,402.089h-4.754l-3.747-1.964h4.754Z" transform="translate(-176.376 -392.655)"/></g><g transform="translate(-1630.898 -654.487)"><path class="h" d="M255.529,436.919h-38.6l-19.709-10.352h38.6Z" transform="translate(-197.218 -426.568)"/><path class="i" d="M247.372,443.466H236.138l-5.736-3.013h11.234Z" transform="translate(-215.833 -434.357)"/><g transform="translate(21.287 1.045)"><path class="g" d="M259.462,436.823a.441.441,0,0,1-.2-.05l-13.321-7a.439.439,0,0,1,.408-.778l13.321,7a.439.439,0,0,1-.2.828Z" transform="translate(-245.702 -428.949)"/></g><g transform="translate(25.768 0.787)"><path class="g" d="M269.67,436.235a.444.444,0,0,1-.2-.05l-13.321-7a.439.439,0,0,1,.408-.778l13.321,7a.439.439,0,0,1-.2.828Z" transform="translate(-255.91 -428.361)"/></g><g transform="translate(31.861 1.174)"><path class="g" d="M283.547,437.117a.441.441,0,0,1-.2-.05l-13.321-7a.439.439,0,0,1,.408-.778l13.321,7a.439.439,0,0,1-.2.828Z" transform="translate(-269.787 -429.243)"/></g><g transform="translate(36.342 0.916)"><path class="g" d="M293.754,436.529a.442.442,0,0,1-.2-.05l-13.321-7a.439.439,0,0,1,.408-.778l13.321,7a.439.439,0,0,1-.2.828Z" transform="translate(-279.994 -428.655)"/></g></g><path class="d" d="M341.848,212.134l-9.914,11.125L329.4,230.1l-.518-6.41-1.04-7.811.105-1.444.593-8.162a17.6,17.6,0,0,1-4.755-.162c-5.927-1.054-10.449-5.58-11.016-15.375a38.782,38.782,0,0,1,1.387-13.7c1.462-4.759,3.495-6.8,3.495-6.8s7.415,12.421,17.241,13.795c0,0,1.8-4.246,4.606-2.994s2.81,9.7-1.642,10.8a36.707,36.707,0,0,0,2.463,17.281A17.1,17.1,0,0,0,341.848,212.134Z" transform="translate(-1892.887 -937.26)"/><ellipse class="e" cx="3.973" cy="3.973" rx="3.973" ry="3.973" transform="translate(-1564.706 -749.699)"/><path class="c" d="M353.351,250.087l-5.26,5.251.312-4.272A25.424,25.424,0,0,0,353.351,250.087Z" transform="translate(-1912.749 -982.058)"/><path class="c" d="M336.584,256.381l-.281,3.89a18.056,18.056,0,0,0-8.311,8.592,11.388,11.388,0,0,1-.1-5.725,31.478,31.478,0,0,1,2.208-6.059,42.16,42.16,0,0,0,2.037-5.132,17.6,17.6,0,0,0,4.755.162Z" transform="translate(-1901.242 -983.101)"/><path class="e" d="M323.752,205.947l2.261,9.523s-3.938,1.19-4.456.241S323.752,205.947,323.752,205.947Z" transform="translate(-1897.828 -957.297)"/><path class="c" d="M369.289,200.48c-1.177-4.815-4.035-8.982-7.29-12.639-2.635-2.96-5.564-5.638-8.341-8.461-.87-1.417-1.684-2.867-2.411-4.366-2.722-5.615-4.149-11.793-6.95-17.364s-7.508-10.765-13.672-11.727c-9.053-1.414-17.694,6.612-26.7,4.922a15.26,15.26,0,0,0,4.957,12.35l.338.105a18.361,18.361,0,0,1,3.375-6.67c.542,2.7,2.414,4.914,4.267,6.872a21.914,21.914,0,0,0,7.567,5.6,12.211,12.211,0,0,0,4.009.882,13.755,13.755,0,0,0,1.518.309s1.8-4.246,4.606-2.994,2.81,9.7-1.642,10.8a36.707,36.707,0,0,0,2.463,17.281,17.1,17.1,0,0,0,1.528,3.021,8.735,8.735,0,0,0,1.322,1.6v0c.18.167.369.329.571.483,3.859,2.946,9.545,1.181,14.089,2.889,4.206,1.581,6.814,6.006,7.5,10.449s-.206,8.961-1.093,13.369l.079.026c.088-.263.171-.531.255-.795,5.9-2.088,9.393-8.483,9.673-14.775A24.227,24.227,0,0,0,369.289,200.48Zm-48.222-33.764a27.154,27.154,0,0,1-3.425-3.036,27.6,27.6,0,0,1-2.924-3.407,10.761,10.761,0,0,1-1.514-3.008c1.515,2.294,6.444,9.137,12.953,11.936A15.137,15.137,0,0,1,321.068,166.716Zm48.2,42.73c-.427-6.36-3.5-12.3-7.055-17.621-2.418-3.623-5.093-7.1-7.472-10.738,1.693,1.675,3.412,3.324,5.062,5.036,3.486,3.617,6.787,7.656,8.466,12.458A23.188,23.188,0,0,1,369.269,209.446Z" transform="translate(-1887.951 -923.532)"/><path class="c" d="M318.463,202.965c0,1.371-.772,2.482-1.724,2.482s-1.724-1.111-1.724-2.482.772-2.481,1.724-2.481S318.463,201.595,318.463,202.965Z" transform="translate(-1894.195 -954.233)"/><path class="c" d="M338.815,202.155c0,1.371-.772,2.482-1.724,2.482s-1.724-1.111-1.724-2.482.772-2.482,1.724-2.482S338.815,200.784,338.815,202.155Z" transform="translate(-1905.612 -953.778)"/><path class="c" d="M317.365,193.07a9.455,9.455,0,0,0-2.551.224.885.885,0,0,0-.613,1.081.9.9,0,0,0,1.08.613c.207-.046.416-.08.625-.111a8.668,8.668,0,0,1,1.459-.05.884.884,0,0,0,.878-.878A.9.9,0,0,0,317.365,193.07Z" transform="translate(-1893.719 -950.067)"/><path class="c" d="M339.544,193.746a1.025,1.025,0,0,0-.525-.4,6.735,6.735,0,0,0-3.164-.448.949.949,0,0,0-.621.257.878.878,0,0,0,.621,1.5,5.387,5.387,0,0,1,2.7.385.88.88,0,0,0,.677-.089.878.878,0,0,0,.315-1.2Z" transform="translate(-1905.393 -949.957)"/><path class="j" d="M340.21,232.4a2.71,2.71,0,1,1-3.642-1.84A2.9,2.9,0,0,1,340.21,232.4Z" transform="translate(-1905.393 -971.008)"/><path class="a" d="M338.787,230s1.313,3.754-2.472,5.005c-3.082,1.019-4.377-1.005-4.724-1.7Z" transform="translate(-1903.493 -970.788)"/><path class="i" d="M366.518,296.517l.079.026c-1.221,3.789-2.608,7.591-4.008,11.178v0c-4.329,11.082-8.79,20.121-8.926,20.389-4.276-5.905-12.241-9.826-14.827-10.989-.531-.237-.834-.36-.834-.36l-1.629,4.882c.136.127.277.255.408.378l-14.765,1.967v-6.085s-.364-.79-.9-2.046c-.738-1.712-1.8-4.294-2.7-6.893-.979-2.854-1.747-5.73-1.655-7.5.246-4.557,10.23-22.132,10.23-22.132a19.621,19.621,0,0,0,.575,4.579,2.961,2.961,0,0,1,.294-.856,43.186,43.186,0,0,0,4.1,10.436l5.62-9.58c.233.6.461,1.273.667,2.011,0,0,6.234-10.081,7.209-16.6.18.167.369.329.571.483,3.859,2.946,9.545,1.181,14.089,2.889,4.206,1.581,6.814,6.006,7.5,10.449S367.405,292.109,366.518,296.517Z" transform="translate(-1895.17 -992.85)"/><path class="k" d="M409.377,356.787l2.63,23.116H400.161l.983-1.708c-.215-.347-.448-.685-.694-1.019C400.587,376.908,405.048,367.868,409.377,356.787Z" transform="translate(-1941.958 -1041.911)"/><path class="k" d="M378.731,388.726c.246.334.479.672.694,1.019l-.983,1.708-4.957,8.627s-1.743-8.2-11.635-17.443c-.132-.123-.272-.25-.408-.378l1.629-4.882s.3.123.834.36C366.49,378.9,374.454,382.821,378.731,388.726Z" transform="translate(-1920.238 -1053.462)"/><path class="d" d="M306.832,406.8s-11.341.2-43.044-1.629c0,0-7.407,5.128-10.414,4.8s-8.952-5.9-10.419-8.219,2.362-5.778,2.362-5.778.04-1.747,2.441-2.766c1.071-.452,4.008-.391,6.941-.184,3.653.263,7.3.755,7.3.755l8.82-1.177,9.615-1.282,14.765-1.967C305.089,398.6,306.832,406.8,306.832,406.8Z" transform="translate(-1853.586 -1060.182)"/><path class="a" d="M367.766,267.275v0c-.975,6.52-7.209,16.6-7.209,16.6-.206-.738-.435-1.409-.667-2.011-1.506-3.9-3.359-5.067-3.359-5.067l9.914-11.125A8.739,8.739,0,0,0,367.766,267.275Z" transform="translate(-1917.483 -990.803)"/><path class="b" d="M351.767,296.084l-5.62,9.58a43.194,43.194,0,0,1-4.1-10.436v0a15.262,15.262,0,0,1,3.306-3.78l.518,6.41,2.533-6.836S350.261,292.185,351.767,296.084Z" transform="translate(-1909.361 -1005.017)"/><path class="a" d="M335.925,355.237h6.849l.272,14.032H332.917l-.206-14.032Zm4.707,7.938v-6.59h-5.506v6.59Z" transform="translate(-1904.121 -1041.042)"/><rect class="i" width="5.506" height="6.59" transform="translate(-1568.996 -684.457)"/><path class="a" d="M343.206,274.2l1.041,7.811a15.261,15.261,0,0,0-3.306,3.78v0a2.965,2.965,0,0,0-.294.856,19.621,19.621,0,0,1-.575-4.579C340.058,279.378,340.659,276.129,343.206,274.2Z" transform="translate(-1908.25 -995.582)"/><path class="g" d="M341.8,350.367l1.69,2.138h-3.455Z" transform="translate(-1908.228 -1038.31)"/><path class="i" d="M317.807,279.5a18.056,18.056,0,0,1,8.311-8.592l-.105,1.444c-2.546,1.932-3.148,5.181-3.135,7.872,0,0-9.984,17.575-10.23,22.132-.092,1.769.676,4.645,1.655,7.5l-.6.149-4.285-2.081.136-.277s5.453-19.327,7.648-26.527A13.872,13.872,0,0,1,317.807,279.5Z" transform="translate(-1891.057 -993.737)"/><path class="d" d="M246.241,374.154v6.085l-9.615,1.282-29.263-.061c-4.952,2.129-7.513,2.243-9.427,1.291-.781.053-3.713.377-4.494.425-.075.843-.334,1.594-1.032,1.594-1.585,0-3.354-3.539-3.354-3.539s-.487,3.539-2.077,2.687-1.159-5.7-1.159-5.7-3.6,3.53-4.088,2.2,1.892-7.67,7.811-8.219,19.283,1.831,19.283,1.831l26.505-4.434,10.006,2.511C245.877,373.364,246.241,374.154,246.241,374.154Z" transform="translate(-1819.395 -1049.097)"/><path class="k" d="M313.72,363.167l-10.006-2.511c-.615-4.922,1.019-7,1.019-7l1.409.685,4.882,1.932h0C311.916,358.873,312.982,361.454,313.72,363.167Z" transform="translate(-1887.778 -1040.156)"/><path class="l" d="M276.442,374.144a1.474,1.474,0,0,1,.417,1.949c-3.1-.4-3.833-1.809-3.833-1.809a1.876,1.876,0,0,1,1.256-.966A3.945,3.945,0,0,1,276.442,374.144Z" transform="translate(-1870.641 -1051.184)"/><path class="k" d="M274.536,377.329l-1.87,3.227a6.294,6.294,0,0,1-3.78-1.984l1.818-3.051S271.441,376.929,274.536,377.329Z" transform="translate(-1868.319 -1052.42)"/><path class="i" d="M267.41,384.454l-2.915,5.031-4.979-.105,4.114-6.911A6.294,6.294,0,0,0,267.41,384.454Z" transform="translate(-1863.063 -1056.318)"/><path class="c" d="M374.919,307.868,371.3,319.251l-3.6,11.331L365.666,337c-.086.27.338.385.423.117l3.615-11.383,3.6-11.331,2.039-6.422C375.428,307.715,375,307.6,374.919,307.868Z" transform="translate(-1922.602 -1014.384)"/><path class="c" d="M409.544,358.066q-3.786,7.529-6.95,15.351-.891,2.2-1.731,4.428c-.1.264.324.379.423.117q2.96-7.831,6.55-15.4,1.019-2.148,2.087-4.271C410.05,358.035,409.671,357.813,409.544,358.066Z" transform="translate(-1942.343 -1042.566)"/><path class="c" d="M326.338,293.147c-2.088,3.871-4.227,7.719-6.254,11.622-1.829,3.522-3.443,7.3-3.429,11.337a12.267,12.267,0,0,0,1.506,6.033.22.22,0,0,0,.379-.222c-1.895-3.337-1.724-7.4-.632-10.974a34.26,34.26,0,0,1,2.347-5.549c.957-1.87,1.975-3.708,2.972-5.555l3.49-6.471C326.851,293.12,326.472,292.9,326.338,293.147Z" transform="translate(-1895.115 -1006.151)"/><path class="c" d="M350.794,302.182l-7.117,16.1-1.734,3.922a84.788,84.788,0,0,1-1.12-16.2q.065-2.413.269-4.819c.024-.281-.415-.28-.439,0a85.081,85.081,0,0,0,.291,17.132q.277,2.332.681,4.647a.22.22,0,0,0,.025.111.169.169,0,0,0,.134.121.174.174,0,0,0,.239-.1l0-.011a.221.221,0,0,0,.031-.07L349.14,307l2.033-4.6C351.286,302.148,350.908,301.924,350.794,302.182Z" transform="translate(-1908.409 -1010.603)"/><path class="c" d="M315.837,394.073l-9.337.915c-.279.027-.281.467,0,.439l9.337-.915C316.116,394.485,316.119,394.046,315.837,394.073Z" transform="translate(-1889.301 -1062.827)"/><path class="c" d="M215.545,390.475a37.807,37.807,0,0,1-8.058,1.623q-.47.042-.942.072a3,3,0,0,1-.8-.006c-.2-.042-.424-.137-.41-.378.017-.3.4-.58.6-.767a23.941,23.941,0,0,1,2.888-2.339,24.43,24.43,0,0,1,3.654-2.073c.256-.118.034-.5-.222-.379a24.572,24.572,0,0,0-6.735,4.581c-.369.354-.853.879-.5,1.412a1.349,1.349,0,0,0,1.211.408,34.327,34.327,0,0,0,4.437-.508,38.2,38.2,0,0,0,4.994-1.222C215.93,390.814,215.816,390.39,215.545,390.475Z" transform="translate(-1832.423 -1058.413)"/><path class="c" d="M197.877,388.029a10.528,10.528,0,0,1-.021-5.944.22.22,0,0,0-.423-.117,10.962,10.962,0,0,0,.021,6.178A.22.22,0,0,0,197.877,388.029Z" transform="translate(-1827.993 -1055.95)"/><path class="c" d="M192.775,380.775a.225.225,0,0,0-.3.079,8.6,8.6,0,0,0-1.621,3.646c-.051.276.372.394.423.116a8.318,8.318,0,0,1,1.577-3.541A.221.221,0,0,0,192.775,380.775Z" transform="translate(-1824.544 -1055.351)"/><path class="c" d="M344.553,291.873a44.115,44.115,0,0,0-3.565,3.987c-.173.219.135.532.31.31a44.118,44.118,0,0,1,3.565-3.987C345.065,291.985,344.754,291.674,344.553,291.873Z" transform="translate(-1908.736 -1005.462)"/><path class="c" d="M360.555,297.366a17.779,17.779,0,0,0-3.78-6.772c-.189-.211-.5.1-.31.31a17.272,17.272,0,0,1,3.667,6.579A.22.22,0,0,0,360.555,297.366Z" transform="translate(-1917.413 -1004.741)"/><path class="c" d="M351,307.149c-.012-.281-.451-.283-.439,0q.124,2.919.249,5.839c.012.281.451.283.439,0Q351.123,310.069,351,307.149Z" transform="translate(-1914.133 -1013.948)"/><path class="c" d="M353.774,309.564a.586.586,0,0,0-.709-.285.684.684,0,0,0-.211.135c-.007.007-.017.009-.024.017a.548.548,0,0,0-.03.049.465.465,0,0,0-.062.075.491.491,0,0,0-.015.05c-.006.014-.009.029-.014.044a.569.569,0,0,0-.031.164c0,.006,0,.012,0,.018s.007.03.008.046a.548.548,0,0,0,.009.107c0,.014.014.025.018.039a.587.587,0,0,0,.036.073.574.574,0,0,0,.069.11c.006.007.009.017.015.024a.532.532,0,0,0,.054.039.567.567,0,0,0,.063.058c.01.006.022.007.033.012a.607.607,0,0,0,.089.032.525.525,0,0,0,.109.033.545.545,0,0,0,.4-.086.619.619,0,0,0,.241-.336A.587.587,0,0,0,353.774,309.564Z" transform="translate(-1915.32 -1015.243)"/><path class="f" d="M74.036,370.635l-1.3,10.748L95.189,380v4.478L62.48,388.14l-8.869-6.757,10.116-23.941,3.635-8.605,9.031,2.362-1.133,9.356Z" transform="translate(-1747.559 -1037.452)"/><path class="f" d="M119.041,213.457l15.178,79.09h-6.511l-15.257-79.09Z" transform="translate(-1780.566 -961.51)"/><path class="g" d="M119.618,407.852l-22.457,1.383,1.3-10.748Z" transform="translate(-1771.989 -1065.303)"/><path class="g" d="M67.85,213.457l15.257,79.09-19.441-7.934,1.133-9.356-9.031-2.362L52.132,281.5l-1.611-.685L32.941,213.457Z" transform="translate(-1735.964 -961.51)"/><path class="c" d="M124.588,275.245Q123.325,267.818,122,260.4q-1.336-7.453-2.738-14.894-1.4-7.4-2.857-14.794t-2.989-14.769q-.191-.922-.383-1.844c-.058-.277-.481-.159-.424.117q1.536,7.375,3.006,14.765t2.874,14.791q1.411,7.439,2.755,14.891,1.337,7.414,2.608,14.841t2.476,14.863q.15.93.3,1.859c.045.278.468.16.423-.116Q125.85,282.672,124.588,275.245Z" transform="translate(-1780.649 -961.782)"/><path class="c" d="M84.846,353.591q-2,7.142-4.169,14.237Q78.52,374.9,76.2,381.914q-1.312,3.969-2.674,7.922c-.092.268.331.383.423.117q2.417-7.012,4.675-14.078,2.248-7.04,4.336-14.13,1.181-4.011,2.309-8.036A.22.22,0,0,0,84.846,353.591Z" transform="translate(-1758.724 -1040.032)"/></g></g></svg>