<svg xmlns="http://www.w3.org/2000/svg" width="25.227" height="25.227" viewBox="0 0 25.227 25.227"><defs><style>.a{fill:#00a9ff;}.b{fill:#fff;}</style></defs><path class="a" d="M572.9,201.88a12.613,12.613,0,1,0-12.612,12.613A12.614,12.614,0,0,0,572.9,201.88Z" transform="translate(-547.678 -189.267)"/><path class="b" d="M591.745,232.591a6.216,6.216,0,0,1-1.61.411,3.033,3.033,0,0,0,1.307-1.55.047.047,0,0,0-.068-.057,6.181,6.181,0,0,1-1.838.671,3.081,3.081,0,0,0-2.238-.953,3.018,3.018,0,0,0-2.985,3.7,8.754,8.754,0,0,1-6.3-3.134.017.017,0,0,0-.028,0,2.988,2.988,0,0,0,.908,3.97.019.019,0,0,1-.011.034,3.1,3.1,0,0,1-1.3-.361.015.015,0,0,0-.023.014,4.08,4.08,0,0,0,.207,1.1,3.093,3.093,0,0,0,2.252,1.866,3.214,3.214,0,0,1-.809.107,3.06,3.06,0,0,1-.55-.051.017.017,0,0,0-.019.022,3.065,3.065,0,0,0,2.8,2.066.018.018,0,0,1,.011.033,6.2,6.2,0,0,1-3.767,1.261,6.384,6.384,0,0,1-.73-.041,8.78,8.78,0,0,0,4.7,1.355,8.537,8.537,0,0,0,5.743-2.073,8.851,8.851,0,0,0,2.771-4.69,8.283,8.283,0,0,0,.21-1.821c0-.13,0-.261-.01-.39a6.165,6.165,0,0,0,1.435-1.429A.047.047,0,0,0,591.745,232.591Z" transform="translate(-571.812 -223.763)"/></svg>